<mxfile host="Electron" modified="2024-03-25T14:28:30.218Z" agent="Mozilla/5.0 (Macintosh; Intel Mac OS X 10_15_7) AppleWebKit/537.36 (KHTML, like Gecko) draw.io/24.0.4 Chrome/120.0.6099.109 Electron/28.1.0 Safari/537.36" etag="1XTBxWZE8Fx9Q78RbTAO" version="24.0.4" type="device" pages="2">
  <diagram name="Página-1" id="sI6x53Qi2S_D4lOJEkXs">
    <mxGraphModel dx="1247" dy="743" grid="0" gridSize="10" guides="1" tooltips="1" connect="1" arrows="1" fold="1" page="0" pageScale="1" pageWidth="827" pageHeight="1169" math="0" shadow="0">
      <root>
        <mxCell id="0" />
        <mxCell id="1" parent="0" />
        <mxCell id="ilRT4vsvD3dIATJiHJuK-28" value="" style="rounded=0;whiteSpace=wrap;html=1;" vertex="1" parent="1">
          <mxGeometry x="14" y="253" width="826" height="394" as="geometry" />
        </mxCell>
        <mxCell id="ilRT4vsvD3dIATJiHJuK-15" style="edgeStyle=orthogonalEdgeStyle;rounded=0;orthogonalLoop=1;jettySize=auto;html=1;" edge="1" parent="1" source="ilRT4vsvD3dIATJiHJuK-14" target="ilRT4vsvD3dIATJiHJuK-13">
          <mxGeometry relative="1" as="geometry" />
        </mxCell>
        <mxCell id="ilRT4vsvD3dIATJiHJuK-16" value="Invoke Model" style="edgeLabel;html=1;align=center;verticalAlign=middle;resizable=0;points=[];" vertex="1" connectable="0" parent="ilRT4vsvD3dIATJiHJuK-15">
          <mxGeometry x="0.0845" y="-1" relative="1" as="geometry">
            <mxPoint y="10" as="offset" />
          </mxGeometry>
        </mxCell>
        <mxCell id="ilRT4vsvD3dIATJiHJuK-14" value="Imagen" style="sketch=0;outlineConnect=0;fontColor=#232F3E;gradientColor=none;fillColor=#ED7100;strokeColor=none;dashed=0;verticalLabelPosition=bottom;verticalAlign=top;align=center;html=1;fontSize=12;fontStyle=0;aspect=fixed;pointerEvents=1;shape=mxgraph.aws4.container_registry_image;" vertex="1" parent="1">
          <mxGeometry x="95" y="415" width="75" height="75" as="geometry" />
        </mxCell>
        <mxCell id="ilRT4vsvD3dIATJiHJuK-17" value="&lt;h1 style=&quot;margin-top: 0px;&quot;&gt;&lt;span style=&quot;font-size: 14px;&quot;&gt;Instrucción:&lt;/span&gt;&lt;/h1&gt;&lt;p&gt;Analiza la imagen y provee un texto alternativo para accesibilidad web.&lt;/p&gt;" style="text;html=1;whiteSpace=wrap;overflow=hidden;rounded=0;" vertex="1" parent="1">
          <mxGeometry x="95" y="302" width="111" height="120" as="geometry" />
        </mxCell>
        <mxCell id="ilRT4vsvD3dIATJiHJuK-18" value="AWS Cloud" style="points=[[0,0],[0.25,0],[0.5,0],[0.75,0],[1,0],[1,0.25],[1,0.5],[1,0.75],[1,1],[0.75,1],[0.5,1],[0.25,1],[0,1],[0,0.75],[0,0.5],[0,0.25]];outlineConnect=0;gradientColor=none;html=1;whiteSpace=wrap;fontSize=12;fontStyle=0;container=1;pointerEvents=0;collapsible=0;recursiveResize=0;shape=mxgraph.aws4.group;grIcon=mxgraph.aws4.group_aws_cloud_alt;strokeColor=#232F3E;fillColor=none;verticalAlign=top;align=left;spacingLeft=30;fontColor=#232F3E;dashed=0;" vertex="1" parent="1">
          <mxGeometry x="290" y="305" width="280" height="280" as="geometry" />
        </mxCell>
        <mxCell id="ilRT4vsvD3dIATJiHJuK-13" value="Amazon Bedrock" style="sketch=0;points=[[0,0,0],[0.25,0,0],[0.5,0,0],[0.75,0,0],[1,0,0],[0,1,0],[0.25,1,0],[0.5,1,0],[0.75,1,0],[1,1,0],[0,0.25,0],[0,0.5,0],[0,0.75,0],[1,0.25,0],[1,0.5,0],[1,0.75,0]];outlineConnect=0;fontColor=#232F3E;fillColor=#01A88D;strokeColor=#ffffff;dashed=0;verticalLabelPosition=bottom;verticalAlign=top;align=center;html=1;fontSize=12;fontStyle=0;aspect=fixed;shape=mxgraph.aws4.resourceIcon;resIcon=mxgraph.aws4.bedrock;" vertex="1" parent="ilRT4vsvD3dIATJiHJuK-18">
          <mxGeometry x="180" y="108.5" width="78" height="78" as="geometry" />
        </mxCell>
        <mxCell id="ilRT4vsvD3dIATJiHJuK-21" style="edgeStyle=orthogonalEdgeStyle;rounded=0;orthogonalLoop=1;jettySize=auto;html=1;" edge="1" parent="ilRT4vsvD3dIATJiHJuK-18" target="ilRT4vsvD3dIATJiHJuK-20">
          <mxGeometry relative="1" as="geometry">
            <mxPoint x="180" y="168" as="sourcePoint" />
            <mxPoint x="-13" y="252" as="targetPoint" />
            <Array as="points">
              <mxPoint x="-13" y="168" />
              <mxPoint x="-13" y="250" />
            </Array>
          </mxGeometry>
        </mxCell>
        <mxCell id="ilRT4vsvD3dIATJiHJuK-20" value="&quot;esta imagen muestra un diagrama...&quot;" style="text;html=1;align=center;verticalAlign=middle;whiteSpace=wrap;rounded=0;strokeColor=default;spacing=4;" vertex="1" parent="1">
          <mxGeometry x="103" y="531" width="127" height="47" as="geometry" />
        </mxCell>
        <mxCell id="ilRT4vsvD3dIATJiHJuK-22" value="&lt;font style=&quot;font-size: 24px;&quot;&gt;&lt;span style=&quot;font-size: 24px;&quot;&gt;1&lt;/span&gt;&lt;/font&gt;" style="ellipse;whiteSpace=wrap;html=1;aspect=fixed;strokeColor=#FF33FF;fillColor=#00CCCC;fontColor=#FFFFFF;strokeWidth=3;fontStyle=1;fontSize=24;" vertex="1" parent="1">
          <mxGeometry x="51" y="361" width="29" height="29" as="geometry" />
        </mxCell>
        <mxCell id="ilRT4vsvD3dIATJiHJuK-23" value="2" style="ellipse;whiteSpace=wrap;html=1;aspect=fixed;strokeColor=#FF33FF;fillColor=#00CCCC;fontColor=#FFFFFF;strokeWidth=3;fontStyle=1;fontSize=24;" vertex="1" parent="1">
          <mxGeometry x="48" y="530" width="32" height="32" as="geometry" />
        </mxCell>
        <mxCell id="ilRT4vsvD3dIATJiHJuK-24" value="&lt;font style=&quot;font-size: 24px;&quot;&gt;&lt;span style=&quot;font-size: 24px;&quot;&gt;1&lt;/span&gt;&lt;/font&gt;" style="ellipse;whiteSpace=wrap;html=1;aspect=fixed;strokeColor=#FF33FF;fillColor=#00CCCC;fontColor=#FFFFFF;strokeWidth=3;fontStyle=1;fontSize=24;" vertex="1" parent="1">
          <mxGeometry x="598" y="370" width="29" height="29" as="geometry" />
        </mxCell>
        <mxCell id="ilRT4vsvD3dIATJiHJuK-25" value="2" style="ellipse;whiteSpace=wrap;html=1;aspect=fixed;strokeColor=#FF33FF;fillColor=#00CCCC;fontColor=#FFFFFF;strokeWidth=3;fontStyle=1;fontSize=24;" vertex="1" parent="1">
          <mxGeometry x="598" y="419" width="32" height="32" as="geometry" />
        </mxCell>
        <mxCell id="ilRT4vsvD3dIATJiHJuK-26" value="Usuario invoca LLM&amp;nbsp;&lt;span style=&quot;background-color: initial;&quot;&gt;incluyendo&amp;nbsp;&lt;/span&gt;&lt;div&gt;&lt;span style=&quot;background-color: initial;&quot;&gt;imagen e instrucción.&lt;/span&gt;&lt;/div&gt;" style="text;html=1;align=left;verticalAlign=middle;resizable=0;points=[];autosize=1;strokeColor=none;fillColor=none;" vertex="1" parent="1">
          <mxGeometry x="644" y="364" width="188" height="41" as="geometry" />
        </mxCell>
        <mxCell id="ilRT4vsvD3dIATJiHJuK-27" value="Respuesta de LLM con la&amp;nbsp;&lt;div&gt;descripción&amp;nbsp;&lt;span style=&quot;background-color: initial;&quot;&gt;de la imagen.&amp;nbsp;&lt;/span&gt;&lt;/div&gt;" style="text;html=1;align=left;verticalAlign=middle;resizable=0;points=[];autosize=1;strokeColor=none;fillColor=none;" vertex="1" parent="1">
          <mxGeometry x="642" y="416" width="157" height="41" as="geometry" />
        </mxCell>
      </root>
    </mxGraphModel>
  </diagram>
  <diagram id="9OBwpnbtiH8NklAWRnzJ" name="Página-2">
    <mxGraphModel dx="1434" dy="854" grid="0" gridSize="10" guides="1" tooltips="1" connect="1" arrows="1" fold="1" page="0" pageScale="1" pageWidth="827" pageHeight="1169" math="0" shadow="0">
      <root>
        <mxCell id="0" />
        <mxCell id="1" parent="0" />
        <mxCell id="pEbiVIyut7xxj8QrgogV-5" value="Tipos de Alarmas" style="rounded=0;whiteSpace=wrap;html=1;verticalAlign=top;" vertex="1" parent="1">
          <mxGeometry x="54" y="49" width="191" height="121" as="geometry" />
        </mxCell>
        <mxCell id="pEbiVIyut7xxj8QrgogV-1" value="" style="ellipse;whiteSpace=wrap;html=1;aspect=fixed;fillColor=#FF0000;" vertex="1" parent="1">
          <mxGeometry x="68" y="77" width="80" height="80" as="geometry" />
        </mxCell>
        <mxCell id="pEbiVIyut7xxj8QrgogV-2" value="" style="ellipse;whiteSpace=wrap;html=1;aspect=fixed;fillColor=#66CC00;" vertex="1" parent="1">
          <mxGeometry x="154" y="77" width="80" height="80" as="geometry" />
        </mxCell>
      </root>
    </mxGraphModel>
  </diagram>
</mxfile>
